<svg xmlns="http://www.w3.org/2000/svg" viewBox="0 0 30 30"><path fill="#000000" d="M8.70312 21.3804H9.63846C10.1188 21.3804 10.4221 21.0705 10.4221 20.5798V9.62885C10.4221 9.13812 10.1188 8.82819 9.63846 8.82819H8.70312V6.40039H15.478C19.1182 6.40039 22 8.28581 22 11.8759C22 15.4917 19.1182 17.3772 15.478 17.3772H13.1523V20.5798C13.1523 21.0705 13.4556 21.3804 13.9612 21.3804H15.8571V23.8341H8.70312V21.3804ZM15.2757 14.846C17.6773 14.846 19.0676 13.8129 19.0676 11.9275C19.0676 9.99044 17.6773 9.00899 15.2757 9.00899H13.1523V14.8719H15.2757V14.846Z"/></svg>
